HIERARCHY
ROOT mixamorig:Hips
{
	OFFSET -0.000008 104.274872 1.554316
	CHANNELS 6 Xposition Yposition Zposition Xrotation Yrotation Zrotation
	JOINT mixamorig:Spine
	{
		OFFSET -0.000005 10.181595 0.131519
		CHANNELS 6 Xposition Yposition Zposition Xrotation Yrotation Zrotation
		JOINT mixamorig:Spine1
		{
			OFFSET -0.000000 9.893959 -1.470707
			CHANNELS 6 Xposition Yposition Zposition Xrotation Yrotation Zrotation
			JOINT mixamorig:Spine2
			{
				OFFSET -0.000000 9.220757 -1.370641
				CHANNELS 6 Xposition Yposition Zposition Xrotation Yrotation Zrotation
				JOINT mixamorig:Neck
				{
					OFFSET 0.000001 16.740417 -2.049036
					CHANNELS 6 Xposition Yposition Zposition Xrotation Yrotation Zrotation
					JOINT mixamorig:Head
					{
						OFFSET 0.000000 9.617874 1.685006
						CHANNELS 6 Xposition Yposition Zposition Xrotation Yrotation Zrotation
						JOINT mixamorig:HeadTop_End
						{
							OFFSET 0.000002 22.037354 7.501101
							CHANNELS 6 Xposition Yposition Zposition Xrotation Yrotation Zrotation
							End Site
							{
								OFFSET 0.000168 2310.654297 -282.823242
							}
						}
					}
				}
				JOINT mixamorig:RightShoulder
				{
					OFFSET -4.569970 11.014908 -2.160885
					CHANNELS 6 Xposition Yposition Zposition Xrotation Yrotation Zrotation
					JOINT mixamorig:RightArm
					{
						OFFSET -10.592851 -0.524811 -2.232101
						CHANNELS 6 Xposition Yposition Zposition Xrotation Yrotation Zrotation
						JOINT mixamorig:RightForeArm
						{
							OFFSET -27.841511 0.000031 -0.000004
							CHANNELS 6 Xposition Yposition Zposition Xrotation Yrotation Zrotation
							JOINT mixamorig:RightHand
							{
								OFFSET -28.328831 -0.000015 0.000015
								CHANNELS 6 Xposition Yposition Zposition Xrotation Yrotation Zrotation
								JOINT mixamorig:RightHandThumb1
								{
									OFFSET -2.464806 -1.573990 2.681852
									CHANNELS 6 Xposition Yposition Zposition Xrotation Yrotation Zrotation
									JOINT mixamorig:RightHandThumb2
									{
										OFFSET -3.215179 -1.872803 1.924282
										CHANNELS 6 Xposition Yposition Zposition Xrotation Yrotation Zrotation
										JOINT mixamorig:RightHandThumb3
										{
											OFFSET -2.654831 -1.527969 1.512609
											CHANNELS 6 Xposition Yposition Zposition Xrotation Yrotation Zrotation
											JOINT mixamorig:RightHandThumb4
											{
												OFFSET -2.018814 -1.152008 1.108052
												CHANNELS 6 Xposition Yposition Zposition Xrotation Yrotation Zrotation
												End Site
												{
													OFFSET -188.809540 -114.533607 132.431396
												}
											}
										}
									}
								}
								JOINT mixamorig:RightHandIndex1
								{
									OFFSET -9.108284 -0.517868 2.259835
									CHANNELS 6 Xposition Yposition Zposition Xrotation Yrotation Zrotation
									JOINT mixamorig:RightHandIndex2
									{
										OFFSET -3.699989 0.000000 0.001215
										CHANNELS 6 Xposition Yposition Zposition Xrotation Yrotation Zrotation
										JOINT mixamorig:RightHandIndex3
										{
											OFFSET -2.850006 0.000031 -0.000522
											CHANNELS 6 Xposition Yposition Zposition Xrotation Yrotation Zrotation
											JOINT mixamorig:RightHandIndex4
											{
												OFFSET -2.772186 -0.000015 -0.000020
												CHANNELS 6 Xposition Yposition Zposition Xrotation Yrotation Zrotation
												End Site
												{
													OFFSET -277.218445 0.000000 -0.050231
												}
											}
										}
									}
								}
								JOINT mixamorig:RightHandMiddle1
								{
									OFFSET -9.532516 -0.000031 -0.000023
									CHANNELS 6 Xposition Yposition Zposition Xrotation Yrotation Zrotation
									JOINT mixamorig:RightHandMiddle2
									{
										OFFSET -3.700005 -0.000015 0.003713
										CHANNELS 6 Xposition Yposition Zposition Xrotation Yrotation Zrotation
										JOINT mixamorig:RightHandMiddle3
										{
											OFFSET -2.949974 0.000015 -0.002054
											CHANNELS 6 Xposition Yposition Zposition Xrotation Yrotation Zrotation
											JOINT mixamorig:RightHandMiddle4
											{
												OFFSET -2.946640 0.000000 -0.000156
												CHANNELS 6 Xposition Yposition Zposition Xrotation Yrotation Zrotation
												End Site
												{
													OFFSET -294.664337 0.000000 -0.113670
												}
											}
										}
									}
								}
								JOINT mixamorig:RightHandRing1
								{
									OFFSET -9.103600 -0.043076 -1.865134
									CHANNELS 6 Xposition Yposition Zposition Xrotation Yrotation Zrotation
									JOINT mixamorig:RightHandRing2
									{
										OFFSET -3.379288 0.000000 -0.001055
										CHANNELS 6 Xposition Yposition Zposition Xrotation Yrotation Zrotation
										JOINT mixamorig:RightHandRing3
										{
											OFFSET -2.889687 -0.000015 0.000379
											CHANNELS 6 Xposition Yposition Zposition Xrotation Yrotation Zrotation
											JOINT mixamorig:RightHandRing4
											{
												OFFSET -2.638809 -0.000015 0.000941
												CHANNELS 6 Xposition Yposition Zposition Xrotation Yrotation Zrotation
												End Site
												{
													OFFSET -263.880371 0.000000 0.516020
												}
											}
										}
									}
								}
								JOINT mixamorig:RightHandPinky1
								{
									OFFSET -8.076683 -0.486710 -3.806280
									CHANNELS 6 Xposition Yposition Zposition Xrotation Yrotation Zrotation
									JOINT mixamorig:RightHandPinky2
									{
										OFFSET -3.600014 -0.000015 -0.003747
										CHANNELS 6 Xposition Yposition Zposition Xrotation Yrotation Zrotation
										JOINT mixamorig:RightHandPinky3
										{
											OFFSET -2.099983 0.000000 -0.005739
											CHANNELS 6 Xposition Yposition Zposition Xrotation Yrotation Zrotation
											JOINT mixamorig:RightHandPinky4
											{
												OFFSET -2.115768 -0.000031 -0.003680
												CHANNELS 6 Xposition Yposition Zposition Xrotation Yrotation Zrotation
												End Site
												{
													OFFSET -211.577087 0.000000 -0.350686
												}
											}
										}
									}
								}
							}
						}
					}
				}
				JOINT mixamorig:LeftShoulder
				{
					OFFSET 4.570447 11.014725 -2.160855
					CHANNELS 6 Xposition Yposition Zposition Xrotation Yrotation Zrotation
					JOINT mixamorig:LeftArm
					{
						OFFSET 10.592371 -0.524597 -2.232119
						CHANNELS 6 Xposition Yposition Zposition Xrotation Yrotation Zrotation
						JOINT mixamorig:LeftForeArm
						{
							OFFSET 27.841532 -0.000031 0.000026
							CHANNELS 6 Xposition Yposition Zposition Xrotation Yrotation Zrotation
							JOINT mixamorig:LeftHand
							{
								OFFSET 28.328846 -0.000061 0.000022
								CHANNELS 6 Xposition Yposition Zposition Xrotation Yrotation Zrotation
								JOINT mixamorig:LeftHandThumb1
								{
									OFFSET 2.466141 -1.576172 2.681732
									CHANNELS 6 Xposition Yposition Zposition Xrotation Yrotation Zrotation
									JOINT mixamorig:LeftHandThumb2
									{
										OFFSET 3.217812 -1.872070 1.916482
										CHANNELS 6 Xposition Yposition Zposition Xrotation Yrotation Zrotation
										JOINT mixamorig:LeftHandThumb3
										{
											OFFSET 2.656029 -1.528778 1.514513
											CHANNELS 6 Xposition Yposition Zposition Xrotation Yrotation Zrotation
											JOINT mixamorig:LeftHandThumb4
											{
												OFFSET 2.020889 -1.154053 1.115139
												CHANNELS 6 Xposition Yposition Zposition Xrotation Yrotation Zrotation
												End Site
												{
													OFFSET 190.885437 -115.081749 130.048782
												}
											}
										}
									}
								}
								JOINT mixamorig:LeftHandIndex1
								{
									OFFSET 9.109314 -0.518021 2.259871
									CHANNELS 6 Xposition Yposition Zposition Xrotation Yrotation Zrotation
									JOINT mixamorig:LeftHandIndex2
									{
										OFFSET 3.699989 0.000000 -0.000322
										CHANNELS 6 Xposition Yposition Zposition Xrotation Yrotation Zrotation
										JOINT mixamorig:LeftHandIndex3
										{
											OFFSET 2.850006 0.000000 0.000352
											CHANNELS 6 Xposition Yposition Zposition Xrotation Yrotation Zrotation
											JOINT mixamorig:LeftHandIndex4
											{
												OFFSET 2.774864 -0.000031 -0.000027
												CHANNELS 6 Xposition Yposition Zposition Xrotation Yrotation Zrotation
												End Site
												{
													OFFSET 277.486267 0.000000 -0.009857
												}
											}
										}
									}
								}
								JOINT mixamorig:LeftHandMiddle1
								{
									OFFSET 9.533394 0.000061 0.000044
									CHANNELS 6 Xposition Yposition Zposition Xrotation Yrotation Zrotation
									JOINT mixamorig:LeftHandMiddle2
									{
										OFFSET 3.699989 -0.000015 -0.000231
										CHANNELS 6 Xposition Yposition Zposition Xrotation Yrotation Zrotation
										JOINT mixamorig:LeftHandMiddle3
										{
											OFFSET 2.949997 -0.000015 -0.000059
											CHANNELS 6 Xposition Yposition Zposition Xrotation Yrotation Zrotation
											JOINT mixamorig:LeftHandMiddle4
											{
												OFFSET 2.952896 0.000031 0.000063
												CHANNELS 6 Xposition Yposition Zposition Xrotation Yrotation Zrotation
												End Site
												{
													OFFSET 295.289337 0.000000 0.022810
												}
											}
										}
									}
								}
								JOINT mixamorig:LeftHandRing1
								{
									OFFSET 9.104523 -0.042999 -1.865074
									CHANNELS 6 Xposition Yposition Zposition Xrotation Yrotation Zrotation
									JOINT mixamorig:LeftHandRing2
									{
										OFFSET 3.150009 -0.000031 0.000043
										CHANNELS 6 Xposition Yposition Zposition Xrotation Yrotation Zrotation
										JOINT mixamorig:LeftHandRing3
										{
											OFFSET 2.949982 -0.000015 0.000040
											CHANNELS 6 Xposition Yposition Zposition Xrotation Yrotation Zrotation
											JOINT mixamorig:LeftHandRing4
											{
												OFFSET 2.644348 0.000000 0.000057
												CHANNELS 6 Xposition Yposition Zposition Xrotation Yrotation Zrotation
												End Site
												{
													OFFSET 264.434631 0.000000 0.012105
												}
											}
										}
									}
								}
								JOINT mixamorig:LeftHandPinky1
								{
									OFFSET 8.077789 -0.486847 -3.806259
									CHANNELS 6 Xposition Yposition Zposition Xrotation Yrotation Zrotation
									JOINT mixamorig:LeftHandPinky2
									{
										OFFSET 3.599953 0.000031 0.014727
										CHANNELS 6 Xposition Yposition Zposition Xrotation Yrotation Zrotation
										JOINT mixamorig:LeftHandPinky3
										{
											OFFSET 2.100021 0.000015 0.007705
											CHANNELS 6 Xposition Yposition Zposition Xrotation Yrotation Zrotation
											JOINT mixamorig:LeftHandPinky4
											{
												OFFSET 2.125504 0.000031 0.007517
												CHANNELS 6 Xposition Yposition Zposition Xrotation Yrotation Zrotation
												End Site
												{
													OFFSET 212.550781 0.000000 0.625752
												}
											}
										}
									}
								}
							}
						}
					}
				}
			}
		}
	}
	JOINT mixamorig:RightUpLeg
	{
		OFFSET -8.207787 -6.751648 -1.599560
		CHANNELS 6 Xposition Yposition Zposition Xrotation Yrotation Zrotation
		JOINT mixamorig:RightLeg
		{
			OFFSET -0.000002 -44.370117 0.345942
			CHANNELS 6 Xposition Yposition Zposition Xrotation Yrotation Zrotation
			JOINT mixamorig:RightFoot
			{
				OFFSET 0.000003 -44.423679 -3.043532
				CHANNELS 6 Xposition Yposition Zposition Xrotation Yrotation Zrotation
				JOINT mixamorig:RightToeBase
				{
					OFFSET -0.000002 -8.728671 10.710558
					CHANNELS 6 Xposition Yposition Zposition Xrotation Yrotation Zrotation
					JOINT mixamorig:RightToe_End
					{
						OFFSET -0.000001 -0.000679 9.278119
						CHANNELS 6 Xposition Yposition Zposition Xrotation Yrotation Zrotation
						End Site
						{
							OFFSET 0.000000 -0.067690 927.812134
						}
					}
				}
			}
		}
	}
	JOINT mixamorig:LeftUpLeg
	{
		OFFSET 8.207793 -6.751686 -1.599556
		CHANNELS 6 Xposition Yposition Zposition Xrotation Yrotation Zrotation
		JOINT mixamorig:LeftLeg
		{
			OFFSET -0.000004 -44.370014 0.346954
			CHANNELS 6 Xposition Yposition Zposition Xrotation Yrotation Zrotation
			JOINT mixamorig:LeftFoot
			{
				OFFSET -0.000001 -44.423672 -3.044401
				CHANNELS 6 Xposition Yposition Zposition Xrotation Yrotation Zrotation
				JOINT mixamorig:LeftToeBase
				{
					OFFSET -0.000002 -8.728669 10.710558
					CHANNELS 6 Xposition Yposition Zposition Xrotation Yrotation Zrotation
					JOINT mixamorig:LeftToe_End
					{
						OFFSET -0.000003 -0.000679 9.278133
						CHANNELS 6 Xposition Yposition Zposition Xrotation Yrotation Zrotation
						End Site
						{
							OFFSET 0.000000 -0.068021 927.813477
						}
					}
				}
			}
		}
	}
}
MOTION
Frames: 3
Frame Time: 0.033333
0.000006 104.270477 1.554256 0.000010 0.000003 -0.000113 -0.000005 10.181587 0.131522 0.000001 -0.000003 0.000084 -0.000000 9.893967 -1.470711 0.000001 0.000000 -0.000000 -0.000000 9.220802 -1.370642 0.000000 -0.000000 -0.000000 0.000001 16.740433 -2.049030 0.000000 -0.000000 -0.000000 0.000000 9.617859 1.685014 0.000000 0.000000 0.000000 0.000002 22.037384 7.501101 0.000000 -0.000000 0.000000 -4.569968 11.014880 -2.160881 0.000008 0.000001 -0.000038 -10.592777 -0.524850 -2.231745 79.698691 64.304872 -55.365428 -27.841465 -0.000000 0.000588 37.128990 106.970851 -48.801002 -28.328833 0.000007 0.000018 -0.000322 -0.000045 0.000006 -2.464441 -1.574152 2.682133 61.524828 -114.975129 110.815714 -3.214874 -1.873024 1.924611 236.438637 -43.830468 296.466109 -2.654626 -1.528252 1.513036 224.646534 -32.656627 292.792260 -2.018837 -1.151984 1.108067 -0.000000 -0.000000 0.000000 -9.108068 -0.517757 2.260432 188.505380 17.650577 -231.288756 -3.700073 0.000211 0.001679 137.279166 12.546596 -31.337939 -2.850032 0.000386 -0.000309 89.239072 4.440648 -4.381287 -2.772177 -0.000016 -0.000020 0.000002 -0.000002 -0.000001 -9.532564 0.000043 0.000510 158.273829 10.526970 -52.014308 -3.699963 0.000379 0.003874 85.016580 -7.780208 367.195587 -2.949946 0.000046 -0.002085 -172.224613 189.463273 -179.355549 -2.946621 -0.000025 -0.000150 0.000000 -0.000002 0.000002 -9.103650 -0.042888 -1.864619 153.693709 8.375626 -34.610785 -3.379073 0.000236 -0.001073 50.415972 -33.510230 16.131681 -2.889618 -0.000067 0.000355 345.308082 -20.321747 -2.634645 -2.638809 -0.000011 0.000945 -0.000000 0.000000 0.000000 -8.076692 -0.486502 -3.805763 157.305950 3.281213 -15.571930 -3.599708 0.000109 -0.003784 39.486205 -47.304548 17.804118 -2.099851 -0.000099 -0.005774 163.634339 -156.127360 176.447186 -2.115765 -0.000023 -0.003686 -0.000001 -0.000000 -0.000005 4.570446 11.014691 -2.160851 -0.000018 0.000010 -0.000021 10.592484 -0.524566 -2.232354 35.108402 -66.287662 23.342279 27.841780 -0.000040 -0.000106 32.487242 -106.638091 42.726061 28.328840 -0.000029 0.000021 0.000018 -0.000090 -0.000000 2.466051 -1.576187 2.681903 151.290124 390.257830 -206.624779 3.217587 -1.872028 1.916585 -214.541843 21.400426 164.739095 2.656103 -1.528554 1.514483 -185.396852 -20.031020 39.564318 2.020898 -1.154065 1.115149 0.000002 0.000004 0.000006 9.109406 -0.517795 2.259759 -249.107763 -17.024810 24.505554 3.700044 0.000093 -0.000452 -109.786821 -160.114087 -165.936222 2.850020 0.000044 0.000252 -321.260598 -18.461771 6.539506 2.774878 -0.000008 -0.000032 -0.000002 -0.000002 0.000001 9.533448 0.000295 -0.000076 -78.902216 -171.112331 -169.219849 3.700027 0.000050 -0.000334 47.696218 -8.458127 3.743251 2.950015 -0.000028 0.000026 -20.195809 -12.419215 -2.220309 2.952873 -0.000032 0.000071 0.000000 0.000000 0.000000 9.104574 -0.042752 -1.865228 -77.070939 -173.073770 -171.307469 3.149978 0.000041 -0.000118 32.575330 18.248799 -5.373484 2.949995 0.000029 0.000142 -46.233930 12.530540 5.365790 2.644319 0.000030 0.000072 0.000000 -0.000001 -0.000000 8.077817 -0.486574 -3.806403 -72.647798 -176.044656 -533.934684 3.599844 0.000159 0.014498 68.899499 36.104482 -25.151398 2.100002 0.000000 0.007773 -53.329888 32.767238 16.469698 2.125493 -0.000015 0.007518 -0.000001 -0.000000 0.000001 -8.207786 -6.751667 -1.599560 -0.077001 -0.000003 0.000080 -0.000002 -44.370110 0.345938 0.153719 -0.000000 -0.000000 0.000000 -44.423679 -3.043532 -0.076700 0.000000 -0.000002 -0.000006 -8.728667 10.710559 -0.000009 -0.000000 -0.000000 -0.000001 -0.000679 9.278123 0.000000 -0.000000 -0.000000 8.207792 -6.751710 -1.599556 -0.074518 -0.000003 0.000081 -0.000002 -44.370014 0.346960 0.148822 0.000002 0.000000 -0.000001 -44.423664 -3.044403 -0.074314 0.000000 -0.000002 -0.000004 -8.728671 10.710558 0.000007 -0.000000 -0.000000 0.000000 -0.000680 9.278137 -0.000000 0.000000 -0.000001 
0.000006 104.270477 1.554256 0.000010 0.000003 -0.000113 -0.000005 10.181587 0.131522 0.000001 -0.000003 0.000084 -0.000000 9.893967 -1.470711 0.000001 0.000000 -0.000000 -0.000000 9.220802 -1.370642 0.000000 -0.000000 -0.000000 0.000001 16.740433 -2.049030 0.000000 -0.000000 -0.000000 0.000000 9.617859 1.685014 0.000000 0.000000 0.000000 0.000002 22.037384 7.501101 0.000000 -0.000000 0.000000 -4.569968 11.014880 -2.160881 0.000008 0.000001 -0.000038 -10.592774 -0.524841 -2.231742 80.362558 65.449502 -56.975471 -27.841473 0.000018 0.000585 38.452012 106.191307 -49.821473 -28.328829 0.000007 0.000022 -0.000323 -0.000044 0.000007 -2.464444 -1.574154 2.682170 55.119879 -113.836427 104.439309 -3.214894 -1.873034 1.924626 235.385367 -41.997460 296.697598 -2.654681 -1.528255 1.513075 222.601206 -27.555737 294.779080 -2.018823 -1.152003 1.108073 -0.000004 -0.000005 0.000000 -9.108088 -0.517741 2.260458 188.751841 20.311354 -226.368534 -3.700073 0.000208 0.001689 136.585888 15.167760 -36.924194 -2.850065 0.000364 -0.000289 89.382178 7.637373 -7.554822 -2.772172 -0.000016 -0.000032 0.000004 0.000001 0.000000 -9.532571 0.000077 0.000514 156.680660 11.976556 -54.565060 -3.699956 0.000370 0.003822 75.415547 -7.606452 365.936810 -2.949949 -0.000001 -0.002083 -178.512226 189.486455 -179.876980 -2.946641 0.000015 -0.000154 -0.000003 -0.000001 0.000001 -9.103682 -0.042879 -1.864616 150.851736 10.032552 -37.142381 -3.379071 0.000219 -0.001072 45.192998 -31.646654 13.453440 -2.889618 -0.000044 0.000363 339.504115 -20.036237 -3.643929 -2.638808 -0.000014 0.000937 -0.000002 -0.000000 -0.000003 -8.076698 -0.486466 -3.805747 154.166945 4.435880 -18.571455 -3.599727 0.000084 -0.003778 31.011999 -45.214374 13.112362 -2.099874 -0.000092 -0.005777 159.291391 -157.399237 175.741751 -2.115786 -0.000042 -0.003692 -0.000002 0.000002 -0.000005 4.570446 11.014691 -2.160851 -0.000018 0.000010 -0.000021 10.592487 -0.524569 -2.232355 34.702508 -67.494215 23.582166 27.841785 -0.000078 -0.000116 30.499684 -105.613446 39.522978 28.328831 -0.000044 0.000018 0.000019 -0.000088 0.000000 2.466069 -1.576217 2.681869 164.899454 407.555694 -218.615750 3.217730 -1.872056 1.916553 -176.359910 42.924754 115.780353 2.656030 -1.528809 1.514627 -167.494557 31.237129 97.343979 2.020883 -1.154082 1.115139 0.000000 0.000002 0.000002 9.109383 -0.518010 2.259911 -205.572479 -39.532138 115.420976 3.700080 0.000128 -0.000438 -88.413158 -150.179836 -149.361416 2.850045 0.000137 0.000209 -288.645215 -17.145115 12.353352 2.774888 -0.000030 -0.000031 -0.000002 0.000000 -0.000000 9.533508 0.000198 -0.000037 -67.427921 -156.642397 -145.590277 3.700032 0.000161 -0.000382 75.715502 -11.014267 8.569706 2.950028 0.000064 -0.000166 48.674278 -10.174613 4.612961 2.952859 -0.000032 0.000070 0.000001 0.000000 -0.000000 9.104614 -0.042828 -1.865197 -71.369268 -160.022931 -152.439058 3.149991 0.000225 -0.000135 81.806467 5.229961 -4.530434 2.949946 0.000102 -0.000125 45.700936 13.695877 -5.793717 2.644320 0.000014 0.000062 -0.000003 0.000001 -0.000001 8.077879 -0.486648 -3.806365 -69.041738 -163.508021 -515.357007 3.599928 0.000275 0.014517 91.893618 6.301591 -6.125378 2.099907 0.000138 0.007505 57.984119 31.790108 -17.879820 2.125496 -0.000041 0.007526 0.000003 -0.000001 -0.000003 -8.207786 -6.751667 -1.599560 -0.077001 -0.000003 0.000080 -0.000002 -44.370110 0.345938 0.153719 -0.000000 -0.000000 0.000000 -44.423679 -3.043532 -0.076700 0.000000 -0.000002 -0.000006 -8.728667 10.710559 -0.000009 -0.000000 -0.000000 -0.000001 -0.000679 9.278123 0.000000 -0.000000 -0.000000 8.207792 -6.751710 -1.599556 -0.074518 -0.000003 0.000081 -0.000002 -44.370014 0.346960 0.148822 0.000002 0.000000 -0.000001 -44.423664 -3.044403 -0.074314 0.000000 -0.000002 -0.000004 -8.728671 10.710558 0.000007 -0.000000 -0.000000 0.000000 -0.000680 9.278137 -0.000000 0.000000 -0.000001 
0.000006 104.270477 1.554256 0.000010 0.000003 -0.000113 -0.000005 10.181587 0.131522 0.000001 -0.000003 0.000084 -0.000000 9.893967 -1.470711 0.000001 0.000000 -0.000000 -0.000000 9.220802 -1.370642 0.000000 -0.000000 -0.000000 0.000001 16.740433 -2.049030 0.000000 -0.000000 -0.000000 0.000000 9.617859 1.685014 0.000000 0.000000 0.000000 0.000002 22.037384 7.501101 0.000000 -0.000000 0.000000 -4.569968 11.014880 -2.160881 0.000008 0.000001 -0.000038 -10.592793 -0.524848 -2.231759 79.357215 61.740259 -52.754513 -27.841471 0.000002 0.000597 35.737862 107.501823 -47.470423 -28.328831 0.000022 0.000020 -0.000324 -0.000044 0.000008 -2.464441 -1.574147 2.682164 49.524588 -115.318469 100.134309 -3.214870 -1.873019 1.924654 222.693769 -45.183119 284.039673 -2.654612 -1.528229 1.513083 209.059086 -31.407392 279.889295 -2.018811 -1.151999 1.108060 -0.000000 -0.000005 -0.000001 -9.108067 -0.517832 2.260434 182.854150 18.666350 -197.428913 -3.700073 0.000207 0.001687 132.698104 15.048619 -33.511063 -2.850080 0.000345 -0.000283 87.589854 10.053691 -9.640551 -2.772172 -0.000013 -0.000023 0.000004 -0.000000 0.000001 -9.532567 0.000100 0.000503 155.277316 11.653549 -50.575471 -3.699965 0.000335 0.003815 74.023070 -6.392954 364.874470 -2.949961 -0.000013 -0.002064 -183.233212 187.103702 -180.201304 -2.946630 0.000015 -0.000153 0.000002 0.000003 0.000002 -9.103678 -0.042910 -1.864628 151.547158 9.624341 -36.567450 -3.379072 0.000180 -0.001090 37.559104 -33.012183 11.507786 -2.889612 -0.000086 0.000379 338.209111 -18.735093 -3.622893 -2.638813 -0.000025 0.000939 -0.000000 0.000002 0.000001 -8.076687 -0.486475 -3.805756 155.537737 3.715423 -16.392135 -3.599734 0.000016 -0.003784 18.556845 -45.438032 7.734308 -2.099880 -0.000107 -0.005757 160.392103 -159.325145 176.318328 -2.115774 -0.000050 -0.003698 0.000001 0.000001 -0.000007 4.570446 11.014691 -2.160851 -0.000018 0.000010 -0.000021 10.592485 -0.524568 -2.232357 38.078861 -65.885542 25.210220 27.841764 -0.000048 -0.000094 38.445058 -107.622819 50.965666 28.328838 -0.000028 0.000020 0.000021 -0.000089 0.000000 2.466111 -1.576165 2.681898 189.284213 414.740916 -245.155106 3.217799 -1.872018 1.916536 -121.409140 45.062521 62.494373 2.656070 -1.528733 1.514614 -101.732020 27.891004 41.209557 2.020902 -1.154086 1.115130 -0.000001 0.000001 0.000004 9.109180 -0.517778 2.260099 -302.722727 -153.152184 132.789492 3.700087 0.000053 -0.000341 -43.508237 -142.654088 -99.438095 2.850065 0.000173 0.000236 -276.891662 -20.111221 17.864723 2.774891 -0.000031 -0.000024 -0.000000 -0.000002 -0.000002 9.533295 0.000031 0.000132 -3.573913 -152.224645 -14.415446 3.700043 0.000216 -0.000398 95.271741 -9.083860 9.953572 2.950024 0.000114 -0.000205 63.240223 -5.302456 3.267773 2.952876 -0.000032 0.000066 -0.000001 0.000003 -0.000001 9.104620 -0.042954 -1.865048 -18.021432 -155.053887 -71.264541 3.149960 0.000246 -0.000152 89.171576 12.304606 -12.128153 2.949940 0.000121 -0.000150 52.950359 15.493143 -7.751277 2.644311 0.000027 0.000056 -0.000000 0.000000 -0.000000 8.077926 -0.486787 -3.806242 -19.604356 -159.095091 -443.626141 3.599861 0.000293 0.014524 99.053985 18.022479 -20.742415 2.099916 0.000104 0.007510 52.928341 28.378492 -14.287246 2.125502 -0.000014 0.007512 0.000000 0.000001 0.000001 -8.207786 -6.751667 -1.599560 -0.077001 -0.000003 0.000080 -0.000002 -44.370110 0.345938 0.153719 -0.000000 -0.000000 0.000000 -44.423679 -3.043532 -0.076700 0.000000 -0.000002 -0.000006 -8.728667 10.710559 -0.000009 -0.000000 -0.000000 -0.000001 -0.000679 9.278123 0.000000 -0.000000 -0.000000 8.207792 -6.751710 -1.599556 -0.074518 -0.000003 0.000081 -0.000002 -44.370014 0.346960 0.148822 0.000002 0.000000 -0.000001 -44.423664 -3.044403 -0.074314 0.000000 -0.000002 -0.000004 -8.728671 10.710558 0.000007 -0.000000 -0.000000 0.000000 -0.000680 9.278137 -0.000000 0.000000 -0.000001 
